<svg width="32" height="32" viewBox="0 0 32 32" fill="none" xmlns="http://www.w3.org/2000/svg">
  <rect width="32" height="32" fill="white"/>
  <path d="M12.1584 15.1158H9.13992C9.09967 14.8059 9.01716 14.5262 8.8924 14.2766C8.76764 14.0271 8.60263 13.8138 8.39737 13.6367C8.19212 13.4596 7.94863 13.3248 7.6669 13.2322C7.3892 13.1357 7.08132 13.0874 6.74325 13.0874C6.14358 13.0874 5.62642 13.2343 5.19176 13.5281C4.76113 13.8219 4.4291 14.2464 4.19567 14.8018C3.96626 15.3572 3.85156 16.0294 3.85156 16.8182C3.85156 17.6392 3.96828 18.3274 4.2017 18.8828C4.43916 19.4342 4.77119 19.8507 5.1978 20.1325C5.62843 20.4102 6.13755 20.549 6.72514 20.549C7.05516 20.549 7.355 20.5067 7.62465 20.4222C7.89832 20.3377 8.13778 20.215 8.34304 20.054C8.55232 19.889 8.72337 19.6897 8.85618 19.4563C8.99302 19.2189 9.08759 18.9512 9.13992 18.6534L12.1584 18.6715C12.1061 19.2189 11.9471 19.7582 11.6815 20.2894C11.4199 20.8207 11.0597 21.3056 10.6009 21.7443C10.142 22.179 9.58262 22.5251 8.92259 22.7827C8.26657 23.0402 7.51397 23.169 6.66477 23.169C5.54593 23.169 4.5438 22.9235 3.65838 22.4325C2.77699 21.9375 2.08073 21.2171 1.5696 20.2713C1.05848 19.3255 0.802912 18.1745 0.802912 16.8182C0.802912 15.4579 1.0625 14.3048 1.58168 13.359C2.10085 12.4132 2.80315 11.6948 3.68857 11.2038C4.57398 10.7128 5.56605 10.4673 6.66477 10.4673C7.41335 10.4673 8.10559 10.572 8.74148 10.7812C9.37737 10.9865 9.93679 11.2884 10.4197 11.6868C10.9027 12.0812 11.2951 12.5662 11.5969 13.1417C11.8988 13.7172 12.0859 14.3752 12.1584 15.1158ZM17.6656 6.65199V26.9844H14.8161V6.65199H17.6656ZM20.4924 23V10.6364H25.5996C26.5253 10.6364 27.3242 10.8034 27.9963 11.1374C28.6724 11.4674 29.1936 11.9424 29.5598 12.5621C29.9261 13.1779 30.1092 13.9084 30.1092 14.7536C30.1092 15.6108 29.9221 16.3393 29.5478 16.9389C29.1735 17.5346 28.6422 17.9893 27.954 18.3033C27.2658 18.6132 26.4508 18.7681 25.5091 18.7681H22.2793V16.4137H24.9537C25.4044 16.4137 25.7807 16.3554 26.0826 16.2386C26.3884 16.1179 26.6199 15.9368 26.7768 15.6953C26.9338 15.4498 27.0123 15.1359 27.0123 14.7536C27.0123 14.3712 26.9338 14.0553 26.7768 13.8058C26.6199 13.5522 26.3884 13.363 26.0826 13.2383C25.7767 13.1095 25.4004 13.0451 24.9537 13.0451H23.4806V23H20.4924ZM27.4529 17.3494L30.5318 23H27.2718L24.2534 17.3494H27.4529Z" fill="black"/>
</svg>
